# xmcd
#
# Track frame offsets:
#	150
#	16874
#	31222
#	46782
#	63353
#	78941
#	94554
#	110208
#	127103
#	144869
#	162073
#
# Disc length: 2387 seconds
#
# Revision: 1
# Processed by: cddbd v1.5.2PL0 Copyright (c) Steve Scherf et al.
# Submitted via: audiograbber 1.83.01
#
DISCID=8009510b
DTITLE=Various Artist - CDX 676
DYEAR=2019
DGENRE=Country
TTITLE0=Thompson Square - Masterpiece [Radio Edit]
TTITLE1=Jeannie C Riley - Me and Bobby Mcgee
TTITLE2=Randy Travis - One In A Row
TTITLE3=Jet Jurgensmeyer - A Lot More Love
TTITLE4=Carolina - Everyday American
TTITLE5=Christian Davis - Hands Of A Working Man
TTITLE6=John Schneider - Love You Ain't Seen The Last of Me
TTITLE7=Peyton Davis - No Romeo
TTITLE8=Wes Brown - Shelter When It's Raining
TTITLE9=Paul Overstreet - Somewhere In The Caribbean
TTITLE10=Paul Overstreet - Buffet Would Love It
EXTD=
EXTT0=
EXTT1=
EXTT2=
EXTT3=
EXTT4=
EXTT5=
EXTT6=
EXTT7=
EXTT8=
EXTT9=
EXTT10=
PLAYORDER=
